# xmcd
#
# Track frame offsets:
#	150
#	14925
#	30365
#	47605
#	62102
#	81555
#	96972
#	108825
#	125060
#	139680
#	157982
#
# Disc length: 2355 seconds
#
# Revision: 0
# Processed by: cddbd v1.4PL0 Copyright (c) Steve Scherf et al.
# Submitted via: dBpowerAMP V4.0
#
DISCID=9309310b
DTITLE=Jennifer Butler - Let It Rain
DYEAR=2002
DGENRE=Country
TTITLE0=Basics
TTITLE1=Beauty of Love
TTITLE2=Ever a Friend
TTITLE3=Rock'n Roll Kid
TTITLE4=Can't Walk Away
TTITLE5=I'll Give What It Takes
TTITLE6=Who Do You Think You Are
TTITLE7=Home of a Lonely Heart
TTITLE8=Ev'ry Step
TTITLE9=Without You
TTITLE10=Cry
EXTD=
EXTT0=
EXTT1=
EXTT2=
EXTT3=
EXTT4=
EXTT5=
EXTT6=
EXTT7=
EXTT8=
EXTT9=
EXTT10=
PLAYORDER=
